<svg xmlns="http://www.w3.org/2000/svg" height="48" width="48" viewBox="0 0 48 48" fill="#000000">
  <path d="M24 44q-6.65 0-11.325-4.675Q8 34.65 8 28q0-5.7 3.675-10.025Q15.35 13.65 21 12.4q1.1-4.1 4.375-6.75Q28.65 3 33 3q5.4 0 9.2 3.8Q46 10.6 46 16q0 4.65-2.725 8.3Q40.55 27.95 36 29v-4q3.05-.8 5.025-3.325Q43 19.15 43 16q0-4.15-2.925-7.075Q37.15 6 33 6q-3.4 0-6.05 2.125T24.4 12.8l-.4 2.2q-5.1.5-8.55 4.175Q12 22.85 12 28q0 5 3.5 8.5T24 40q4.15 0 7.275-2.35Q34.4 35.3 35.55 32h3.2q-1.3 5.05-5.225 8.025Q29.6 43 24 43Zm-2-9.5v-3h4v3Zm0-7v-12h4v12Z"/>
</svg>
